<?xml version="1.0" encoding="utf-8"?>
<!-- Generator: Adobe Illustrator 16.2.1, SVG Export Plug-In . SVG Version: 6.00 Build 0)  -->
<!DOCTYPE svg PUBLIC "-//W3C//DTD SVG 1.1//EN" "http://www.w3.org/Graphics/SVG/1.1/DTD/svg11.dtd">
<svg version="1.1" id="Layer_1" xmlns="http://www.w3.org/2000/svg" xmlns:xlink="http://www.w3.org/1999/xlink" x="0px" y="0px"
	 width="302.667px" height="130.48px" viewBox="0 0 302.667 130.48" enable-background="new 0 0 302.667 130.48"
	 xml:space="preserve">
<g>
	<path fill="#2E394B" d="M49.321,67.464l23.082,12.792c1.158,0.649,1.93,1.229,2.312,1.738c0.383,0.51,0.574,1.159,0.574,1.947
		c0,0.997-0.36,1.86-1.078,2.59c-0.719,0.73-1.553,1.095-2.503,1.095c-0.626,0-1.564-0.348-2.815-1.043L34.513,67.464l34.379-19.119
		c1.251-0.672,2.178-1.008,2.781-1.008c0.973,0,1.818,0.359,2.537,1.078c0.718,0.718,1.078,1.576,1.078,2.572
		c0,0.788-0.191,1.437-0.574,1.947c-0.382,0.51-1.153,1.089-2.312,1.738L49.321,67.464z"/>
	<path fill="#2E394B" d="M220.353,43.617L197.514,92.84c-0.579,1.228-1.101,2.027-1.563,2.398c-0.604,0.487-1.333,0.73-2.19,0.73
		c-0.974,0-1.813-0.348-2.521-1.042c-0.707-0.695-1.06-1.483-1.06-2.364c0-0.625,0.277-1.541,0.834-2.746l22.908-49.188
		c0.579-1.228,1.089-2.028,1.529-2.398c0.626-0.487,1.355-0.73,2.189-0.73c0.974,0,1.808,0.342,2.503,1.025s1.043,1.466,1.043,2.346
		C221.187,41.497,220.91,42.413,220.353,43.617z"/>
	<path fill="#2E394B" d="M254.347,67.464l-23.081-12.792c-1.159-0.648-1.93-1.228-2.312-1.738c-0.382-0.51-0.573-1.159-0.573-1.947
		c0-0.996,0.359-1.854,1.078-2.572c0.718-0.718,1.563-1.078,2.537-1.078c0.603,0,1.529,0.336,2.781,1.008l34.379,19.119
		l-34.379,19.119c-1.252,0.695-2.179,1.043-2.781,1.043c-0.974,0-1.819-0.359-2.537-1.078c-0.719-0.718-1.078-1.587-1.078-2.607
		c0-0.788,0.191-1.437,0.573-1.947c0.383-0.509,1.153-1.089,2.312-1.738L254.347,67.464z"/>
</g>
<path fill="#2E394B" d="M85.779,38.043v55.492h93.811V38.043H85.779z M173.93,87.849H91.08V81.03h82.851V87.849z M174.29,75.413
	H91.437v-6.815h82.853V75.413z M174.29,62.979h-41.606v-6.812h41.606V62.979z M174.29,50.548h-41.606v-6.818h41.606V50.548z"/>
<text transform="matrix(1 0 0 1 45.0991 112.3359)" display="none"><tspan x="0" y="0" display="inline" font-family="'Gotham-Bold'" font-size="24">C</tspan><tspan x="16.752" y="0" display="inline" font-family="'Gotham-Bold'" font-size="24">o</tspan><tspan x="32.208" y="0" display="inline" font-family="'Gotham-Bold'" font-size="24" letter-spacing="-1">d</tspan><tspan x="47.303" y="0" display="inline" font-family="'Gotham-Bold'" font-size="24">e </tspan><tspan x="71.135" y="0" display="inline" font-family="'Gotham-Bold'" font-size="24">f</tspan><tspan x="79.822" y="0" display="inline" font-family="'Gotham-Bold'" font-size="24">o</tspan><tspan x="94.798" y="0" display="inline" font-family="'Gotham-Bold'" font-size="24">r </tspan><tspan x="113.95" y="0" display="inline" font-family="'Gotham-Bold'" font-size="24">Am</tspan><tspan x="153.79" y="0" display="inline" font-family="'Gotham-Bold'" font-size="24">e</tspan><tspan x="167.829" y="0" display="inline" font-family="'Gotham-Bold'" font-size="24">r</tspan><tspan x="177.309" y="0" display="inline" font-family="'Gotham-Bold'" font-size="24">i</tspan><tspan x="183.765" y="0" display="inline" font-family="'Gotham-Bold'" font-size="24">c</tspan><tspan x="197.301" y="0" display="inline" font-family="'Gotham-Bold'" font-size="24">a</tspan></text>
<text transform="matrix(1 0 0 1 30.5127 115.0029)" display="none"><tspan x="0" y="0" display="inline" font-family="'Crank8-PlusTwo'" font-size="31">Cod</tspan><tspan x="50.623" y="0" display="inline" font-family="'Crank8-PlusTwo'" font-size="31">e </tspan><tspan x="72.725" y="0" display="inline" font-family="'Crank8-PlusTwo'" font-size="31" letter-spacing="-1">fo</tspan><tspan x="96.316" y="0" display="inline" font-family="'Crank8-PlusTwo'" font-size="31">r </tspan><tspan x="113.024" y="0" display="inline" font-family="'Crank8-PlusTwo'" font-size="31">A</tspan><tspan x="132.616" y="0" display="inline" font-family="'Crank8-PlusTwo'" font-size="31">me</tspan><tspan x="172.761" y="0" display="inline" font-family="'Crank8-PlusTwo'" font-size="31">r</tspan><tspan x="182.898" y="0" display="inline" font-family="'Crank8-PlusTwo'" font-size="31">i</tspan><tspan x="189.532" y="0" display="inline" font-family="'Crank8-PlusTwo'" font-size="31">ca</tspan></text>
</svg>
